HIERARCHY
ROOT Hips
{
  OFFSET 0.000000 0.000000 0.000000
  CHANNELS 6 Xposition Yposition Zposition Xrotation Yrotation Zrotation
  JOINT Spine
  {
    OFFSET 0.000000 10.000000 0.000000
    CHANNELS 3 Xrotation Yrotation Zrotation
    JOINT Chest
    {
      OFFSET 0.000000 15.000000 0.000000
      CHANNELS 3 Xrotation Yrotation Zrotation
      JOINT Neck
      {
        OFFSET 0.000000 15.000000 0.000000
        CHANNELS 3 Xrotation Yrotation Zrotation
        JOINT Head
        {
          OFFSET 0.000000 10.000000 0.000000
          CHANNELS 3 Xrotation Yrotation Zrotation
          End Site
          {
            OFFSET 0.0 5.0 2.0
          }
        }
      }
      JOINT LeftShoulder
      {
        OFFSET 20.000000 5.000000 0.000000
        CHANNELS 3 Xrotation Yrotation Zrotation
        JOINT LeftArm
        {
          OFFSET 15.000000 0.000000 0.000000
          CHANNELS 3 Xrotation Yrotation Zrotation
          JOINT LeftForeArm
          {
            OFFSET 25.000000 0.000000 0.000000
            CHANNELS 3 Xrotation Yrotation Zrotation
            JOINT LeftHand
            {
              OFFSET 20.000000 0.000000 0.000000
              CHANNELS 3 Xrotation Yrotation Zrotation
              End Site
              {
                OFFSET -3.0 0.0 2.0
              }
            }
          }
        }
      }
      JOINT RightShoulder
      {
        OFFSET -20.000000 5.000000 0.000000
        CHANNELS 3 Xrotation Yrotation Zrotation
        JOINT RightArm
        {
          OFFSET -15.000000 0.000000 0.000000
          CHANNELS 3 Xrotation Yrotation Zrotation
          JOINT RightForeArm
          {
            OFFSET -25.000000 0.000000 0.000000
            CHANNELS 3 Xrotation Yrotation Zrotation
            JOINT RightHand
            {
              OFFSET -20.000000 0.000000 0.000000
              CHANNELS 3 Xrotation Yrotation Zrotation
              End Site
              {
                OFFSET 3.0 0.0 2.0
              }
            }
          }
        }
      }
    }
  }
  JOINT LeftUpLeg
  {
    OFFSET 10.000000 -10.000000 0.000000
    CHANNELS 3 Xrotation Yrotation Zrotation
    JOINT LeftLeg
    {
      OFFSET 0.000000 -45.000000 0.000000
      CHANNELS 3 Xrotation Yrotation Zrotation
      JOINT LeftFoot
      {
        OFFSET 0.000000 -45.000000 0.000000
        CHANNELS 3 Xrotation Yrotation Zrotation
        JOINT LeftToeBase
        {
          OFFSET 0.000000 0.000000 10.000000
          CHANNELS 3 Xrotation Yrotation Zrotation
          End Site
          {
            OFFSET 0.0 -1.0 3.0
          }
        }
      }
    }
  }
  JOINT RightUpLeg
  {
    OFFSET -10.000000 -10.000000 0.000000
    CHANNELS 3 Xrotation Yrotation Zrotation
    JOINT RightLeg
    {
      OFFSET 0.000000 -45.000000 0.000000
      CHANNELS 3 Xrotation Yrotation Zrotation
      JOINT RightFoot
      {
        OFFSET 0.000000 -45.000000 0.000000
        CHANNELS 3 Xrotation Yrotation Zrotation
        JOINT RightToeBase
        {
          OFFSET 0.000000 0.000000 10.000000
          CHANNELS 3 Xrotation Yrotation Zrotation
          End Site
          {
            OFFSET 0.0 -1.0 3.0
          }
        }
      }
    }
  }
}
MOTION
Frames: 17
Frame Time: 0.033333
2.527188 0.182978 21.903491 36.418042 26.576941 -71.577663 -46.157027 -29.274236 -63.014870 -46.157027 -29.274236 -63.014870 -61.011350 -12.934134 -21.785135 3.139217 -2.333963 73.305819 6.472814 -9.589770 -67.750660 2.508214 -2.594807 -90.439843 -57.808491 21.262502 -141.806345 -57.808491 21.262502 -141.806345 0.065426 0.076638 81.987564 -13.278674 -16.471274 77.643415 -117.212196 -50.912756 147.601703 -117.212196 -50.912756 147.601703 3.139760 -0.053343 1.948606 -40.043921 1.425299 3.911267 89.444915 -12.553925 -12.499272 54.592144 1.807005 0.971789 0.420229 -0.013308 3.717133 -17.454424 0.052279 0.329871 33.925448 -11.587839 -3.543572 22.734552 -19.738994 -3.995682
2.663895 0.184237 22.871649 35.556943 26.375403 -72.355406 -45.787437 -29.209472 -63.357429 -45.787437 -29.209472 -63.357429 -61.613762 -12.760796 -21.244245 3.083336 -2.284596 73.063167 4.280563 -6.501957 -66.184990 -1.649977 1.480231 -92.896078 -70.873051 22.885878 -147.882269 -70.873051 22.885878 -147.882269 0.378301 0.438173 81.714493 -13.901653 -17.497451 76.792485 -117.503998 -50.755824 147.885264 -117.503998 -50.755824 147.885264 3.203984 -0.054585 1.951811 -40.491099 1.405062 3.809857 87.489483 -12.709064 -12.237076 56.867458 1.060361 0.622324 1.935768 -0.066274 3.832052 -17.170819 0.020176 0.136370 34.330841 -12.532445 -3.886538 23.246759 -21.125859 -4.395673
2.920927 0.185813 24.757716 39.329979 27.495133 -69.074792 -45.136743 -29.093760 -63.959793 -45.136743 -29.093760 -63.959793 -61.871256 -12.682310 -21.009521 2.622621 -1.946428 73.177054 2.004908 -3.106261 -65.029173 -5.528154 5.042475 -94.831718 -81.747685 24.164284 -152.118016 -81.747685 24.164284 -152.118016 0.279433 0.323608 81.452526 -14.370659 -18.269062 76.201756 -117.837050 -50.377285 148.341732 -117.837050 -50.377285 148.341732 3.032517 -0.054055 2.048154 -40.846376 1.424165 3.823815 86.715152 -12.324790 -11.658423 56.878933 1.374900 0.742205 2.771542 -0.101893 4.199533 -17.409458 -0.007230 -0.047049 33.896942 -11.562773 -3.563737 22.999161 -19.518565 -4.061514
3.241861 0.188879 27.302718 48.847042 28.545140 -60.012094 -44.678517 -29.006495 -64.381453 -44.678517 -29.006495 -64.381453 -61.909671 -12.654312 -20.947771 2.140442 -1.594885 73.427476 -0.029690 0.055004 -64.387065 -9.791818 8.695081 -96.410666 -89.125063 25.400080 -154.229549 -89.125063 25.400080 -154.229549 -0.200308 -0.234606 81.251374 -14.468183 -18.567994 75.655203 -118.498029 -50.403538 148.716024 -118.498029 -50.403538 148.716024 2.577451 -0.048522 2.170850 -40.906675 1.448372 3.882020 87.149167 -11.718779 -11.158386 53.992210 3.136486 1.538389 2.094205 -0.082167 4.574572 -17.782697 -0.097147 -0.603338 32.754134 -9.796667 -2.912680 21.555107 -16.490320 -3.213808
3.483639 0.192012 29.430196 54.910055 29.160220 -54.213992 -44.622235 -28.994962 -64.432884 -44.622235 -28.994962 -64.432884 -61.992216 -12.653226 -20.912744 1.884191 -1.420917 73.975432 -1.428583 2.277714 -64.244164 -13.612409 11.881614 -97.676226 -94.464506 26.721197 -155.234078 -94.464506 26.721197 -155.234078 -0.629383 -0.735395 81.141510 -14.315971 -18.584977 75.011564 -120.553036 -50.817649 149.647573 -120.553036 -50.817649 149.647573 2.274311 -0.044455 2.238815 -40.374829 1.366037 3.703412 89.119761 -11.936491 -11.887955 49.936725 4.253717 2.040115 0.827832 -0.033757 4.772772 -18.604118 -0.252242 -1.493161 31.352282 -8.170018 -2.309467 18.905950 -13.500783 -2.302969
3.482497 0.193554 29.597078 51.673718 29.237978 -57.482832 -45.156685 -29.094420 -63.940064 -45.156685 -29.094420 -63.940064 -62.330683 -12.624313 -20.730311 2.082572 -1.598134 74.878779 -2.235023 3.571455 -64.095500 -15.626626 13.372169 -98.943980 -95.305899 27.458524 -154.864055 -95.305899 27.458524 -154.864055 -0.892560 -1.042671 81.124298 -14.463130 -18.926046 74.565725 -123.681692 -51.123652 151.264435 -123.681692 -51.123652 151.264435 2.475586 -0.048815 2.256429 -39.202004 1.079449 3.011926 92.181574 -12.596575 -13.194984 46.681096 4.473889 2.000020 -1.051919 0.044325 4.830363 -19.894191 -0.431885 -2.436820 30.235847 -7.002288 -1.909832 16.272271 -11.371026 -1.680105
3.316758 0.194491 28.465654 46.507932 29.331469 -62.687783 -45.965480 -29.240799 -63.192462 -45.965480 -29.240799 -63.192462 -62.658832 -12.588294 -20.541357 2.454723 -1.910694 75.752543 -2.525437 4.064235 -63.752225 -16.148224 13.549221 -100.077143 -92.547204 27.516607 -153.599966 -92.547204 27.516607 -153.599966 -1.159418 -1.355516 81.097619 -14.854150 -19.492009 74.395469 -127.169905 -51.113180 153.265391 -127.169905 -51.113180 153.265391 2.814736 -0.056479 2.297688 -38.093499 0.744190 2.150008 94.044689 -11.987706 -12.881353 45.997330 5.895578 2.543763 -3.451177 0.146907 4.861012 -20.629920 -0.588981 -3.226046 29.378372 -5.859812 -1.536911 14.657526 -9.315598 -1.198826
3.216720 0.196750 28.008842 47.527078 29.457032 -61.720514 -46.395604 -29.315208 -62.793376 -46.395604 -29.315208 -62.793376 -62.911881 -12.629866 -20.507502 2.641342 -2.068485 76.113776 -2.760003 4.473821 -63.331434 -15.423437 12.795798 -100.763512 -88.630275 27.020882 -152.357268 -88.630275 27.020882 -152.357268 -1.403046 -1.647467 80.857042 -15.065193 -19.730957 74.496485 -129.501132 -50.804760 154.743591 -129.501132 -50.804760 154.743591 2.912028 -0.062236 2.443303 -37.370050 0.592751 1.751886 94.534517 -10.666960 -11.536052 46.500112 7.688383 3.306267 -4.880692 0.210315 4.932760 -20.417429 -0.678984 -3.773684 28.814702 -3.475961 -0.921701 14.486908 -5.267397 -0.691841
3.263519 0.199679 28.772909 54.762844 29.020907 -54.296960 -46.326823 -29.303831 -62.857420 -46.326823 -29.303831 -62.857420 -63.102302 -12.730085 -20.592770 2.777208 -2.171369 76.038330 -2.583774 4.205056 -63.114379 -12.494288 10.355487 -100.723609 -85.054808 26.100173 -151.634157 -85.054808 26.100173 -151.634157 -1.386132 -1.634763 80.582028 -14.941348 -19.488532 74.732091 -130.766218 -50.442812 155.640961 -130.766218 -50.442812 155.640961 2.746977 -0.065498 2.767157 -36.480662 0.644515 1.961304 95.274786 -9.454113 -10.362435 46.204081 8.537756 3.647732 -5.667410 0.249936 5.038289 -19.916618 -0.698975 -3.979431 28.260718 0.489375 0.109044 14.426859 1.194270 0.155573
3.538908 0.201977 31.453641 64.813553 27.972333 -43.798554 -46.006796 -29.250126 -63.155076 -46.006796 -29.250126 -63.155076 -63.283798 -12.731570 -20.524496 2.987373 -2.326245 75.824266 -1.730915 2.822181 -62.816290 -6.486637 5.373911 -100.107918 -76.370075 24.187951 -149.395025 -76.370075 24.187951 -149.395025 -1.182349 -1.396638 80.512546 -14.512939 -18.876711 74.902164 -130.519788 -50.168188 155.655976 -130.519788 -50.168188 155.655976 2.394936 -0.064709 3.135476 -35.311111 0.723815 2.279836 91.122474 -8.293467 -8.512129 45.496719 9.166991 3.858904 -7.411808 0.327437 5.055874 -20.213316 -0.722243 -4.047129 28.809182 3.625369 0.942344 15.178575 6.258742 0.850835
4.027461 0.204153 36.019617 75.605826 21.419428 -29.173611 -45.646530 -29.187432 -63.489185 -45.646530 -29.187432 -63.489185 -63.425585 -12.637319 -20.319437 3.188971 -2.475326 75.633672 -0.193333 0.298971 -62.331705 1.517041 -1.416028 -98.830717 -62.689314 21.282712 -145.377770 -62.689314 21.282712 -145.377770 -1.102274 -1.298136 80.662179 -13.872397 -18.012850 75.020471 -129.458481 -49.952514 155.197432 -129.458481 -49.952514 155.197432 1.685935 -0.049507 3.469778 -33.754593 0.757613 2.499376 83.515949 -8.815288 -7.812172 44.041819 7.782756 3.185192 -9.197825 0.407803 5.068994 -21.005824 -0.772675 -4.163560 29.941796 4.953182 1.329198 16.175568 8.435116 1.206455
4.367259 0.207242 39.152258 82.565212 5.155644 -7.443265 -45.431244 -29.149177 -63.688498 -45.431244 -29.149177 -63.688498 -63.357757 -12.620003 -20.318734 3.013955 -2.332598 75.455847 1.723146 -2.870575 -61.982416 8.232671 -7.468957 -96.498850 -48.624634 18.239997 -140.439927 -48.624634 18.239997 -140.439927 -1.417044 -1.664280 80.803863 -13.494521 -17.381284 75.481957 -128.560481 -49.419805 155.004793 -128.560481 -49.419805 155.004793 0.276697 -0.000594 4.107511 -33.404456 0.728590 2.437531 82.299507 -9.161215 -7.902497 45.246670 7.157438 3.085811 -9.365007 0.424000 5.176939 -21.753426 -0.832445 -4.326384 31.370815 5.933693 1.674931 18.530827 9.883370 1.633650
4.307650 0.209336 38.454987 86.165346 -9.668572 10.782596 -45.380300 -29.140131 -63.735664 -45.380300 -29.140131 -63.735664 -62.928933 -12.675434 -20.575842 2.750384 -2.119630 75.231087 3.528067 -5.808681 -62.327306 11.308969 -10.722708 -93.422134 -39.528912 16.649707 -135.252529 -39.528912 16.649707 -135.252529 -1.897653 -2.221391 80.989701 -13.599226 -17.333467 76.062996 -128.381986 -48.877978 155.209482 -128.381986 -48.877978 155.209482 -1.069319 0.053420 5.137446 -35.101955 0.743756 2.354390 86.470803 -7.477365 -6.919402 50.353106 9.819284 4.842668 -9.295309 0.456587 5.596465 -23.781656 -0.840853 -4.054981 35.070365 7.517453 2.447765 24.267478 11.828491 2.653678
4.037740 0.208094 35.711464 86.731601 -12.529146 13.408145 -45.392950 -29.142491 -63.724002 -45.392950 -29.142491 -63.724002 -62.398191 -12.729531 -20.873546 2.606937 -1.998126 74.928106 5.480593 -8.809124 -63.409270 11.666993 -11.581012 -90.301763 -35.149676 16.710567 -130.197115 -35.149676 16.710567 -130.197115 -2.048818 -2.387581 81.286271 -13.927923 -17.585330 76.591899 -128.048276 -48.842803 155.047954 -128.048276 -48.842803 155.047954 -1.383425 0.073145 6.183998 -38.820240 0.834593 2.357485 82.779650 -5.525649 -4.987187 60.067806 13.334035 7.944213 -9.865915 0.551161 6.323715 -27.463078 -0.751094 -3.181776 40.527697 9.363599 3.541792 31.349546 13.894127 4.016148
3.807982 0.205303 33.334447 88.519757 -8.873842 9.123599 -45.448773 -29.152489 -63.672355 -45.448773 -29.152489 -63.672355 -62.014132 -12.790405 -21.127734 2.450712 -1.864277 74.485806 7.391490 -11.467895 -65.246120 10.394400 -10.807271 -87.596779 -33.845620 17.550925 -126.163040 -33.845620 17.550925 -126.163040 -1.678073 -1.942320 81.744969 -13.886476 -17.430340 76.930588 -127.023924 -49.472473 154.129466 -127.023924 -49.472473 154.129466 -1.065770 0.062930 6.790034 -42.166420 0.965697 2.504327 74.252611 -5.437791 -4.121525 68.467825 14.099539 9.702358 -11.127291 0.688625 7.026164 -31.449591 -0.551249 -2.025480 46.816823 10.376354 4.502555 39.321003 14.741505 5.265157
3.710917 0.204011 32.308220 89.268779 -5.007035 5.106495 -45.642430 -29.187045 -63.493130 -45.642430 -29.187045 -63.493130 -61.867316 -12.898660 -21.363738 2.204317 -1.657731 73.844743 8.622770 -12.941274 -67.175398 9.083152 -9.803760 -85.517231 -32.378225 17.728000 -123.452276 -32.378225 17.728000 -123.452276 -1.233781 -1.412679 82.380748 -13.383076 -16.723648 77.196046 -125.096488 -50.174928 152.646126 -125.096488 -50.174928 152.646126 -0.614104 0.037133 7.231445 -43.719783 1.034095 2.577755 71.704366 -7.942830 -5.816300 70.995830 10.340936 7.531242 -10.536416 0.698473 7.701663 -33.956091 -0.400275 -1.332731 52.604521 11.735761 5.886171 46.300634 16.605574 7.202130
3.789417 0.204525 33.071225 88.892571 2.446757 -2.637415 -45.871533 -29.227336 -63.280845 -45.871533 -29.227336 -63.280845 -61.862511 -12.996158 -21.524687 1.910863 -1.421193 73.229974 8.965375 -13.132054 -68.518252 8.036338 -8.874809 -84.248514 -31.114367 17.503681 -122.110576 -31.114367 17.503681 -122.110576 -0.960868 -1.085953 83.059857 -12.744179 -15.904438 77.282056 -122.778552 -50.570328 151.093196 -122.778552 -50.570328 151.093196 0.377468 -0.027146 7.594458 -44.505186 1.067899 2.610460 71.577061 -12.235661 -8.775590 70.542456 3.439318 2.359762 -7.338523 0.524110 8.487701 -34.431191 -0.407980 -1.323055 55.891110 13.809437 7.382893 49.151776 20.199718 9.297791
